<svg width="53" height="45" viewBox="0 0 53 45" fill="none" xmlns="http://www.w3.org/2000/svg">
<mask id="path-1-inside-1" fill="white">
<path fill-rule="evenodd" clip-rule="evenodd" d="M10 0H16V3.4578C16.565 3.63526 17.1084 3.86152 17.6253 4.13164L20.0708 1.68606L24.3135 5.9287L21.8681 8.37414C22.1383 8.89117 22.3647 9.43477 22.5422 10H26V16H22.5422C22.3647 16.565 22.1385 17.1084 21.8684 17.6253L24.3139 20.0708L20.0713 24.3135L17.6259 21.8681C17.1088 22.1383 16.5652 22.3647 16 22.5422V26H10V22.5422C9.43477 22.3647 8.89117 22.1383 8.37414 21.8681L5.92871 24.3135L1.68607 20.0708L4.13164 17.6253C3.86152 17.1084 3.63526 16.565 3.4578 16H0V10H3.4578C3.63533 9.43477 3.86169 8.89117 4.13195 8.37414L1.68652 5.92871L5.92916 1.68607L8.37473 4.13164C8.89158 3.86152 9.43499 3.63526 10 3.4578V0Z"/>
</mask>
<path fill-rule="evenodd" clip-rule="evenodd" d="M10 0H16V3.4578C16.565 3.63526 17.1084 3.86152 17.6253 4.13164L20.0708 1.68606L24.3135 5.9287L21.8681 8.37414C22.1383 8.89117 22.3647 9.43477 22.5422 10H26V16H22.5422C22.3647 16.565 22.1385 17.1084 21.8684 17.6253L24.3139 20.0708L20.0713 24.3135L17.6259 21.8681C17.1088 22.1383 16.5652 22.3647 16 22.5422V26H10V22.5422C9.43477 22.3647 8.89117 22.1383 8.37414 21.8681L5.92871 24.3135L1.68607 20.0708L4.13164 17.6253C3.86152 17.1084 3.63526 16.565 3.4578 16H0V10H3.4578C3.63533 9.43477 3.86169 8.89117 4.13195 8.37414L1.68652 5.92871L5.92916 1.68607L8.37473 4.13164C8.89158 3.86152 9.43499 3.63526 10 3.4578V0Z" fill="white"/>
<path d="M16 0H18V-2H16V0ZM10 0V-2H8V0H10ZM16 3.4578H14V4.92597L15.4007 5.3659L16 3.4578ZM17.6253 4.13164L16.6989 5.90417L18.0008 6.58455L19.0395 5.54585L17.6253 4.13164ZM20.0708 1.68606L21.4851 0.271847L20.0708 -1.14237L18.6566 0.271846L20.0708 1.68606ZM24.3135 5.9287L25.7277 7.34291L27.1419 5.9287L25.7277 4.51449L24.3135 5.9287ZM21.8681 8.37414L20.4538 6.95992L19.4151 7.99869L20.0956 9.30061L21.8681 8.37414ZM22.5422 10L20.6341 10.5993L21.074 12H22.5422V10ZM26 10H28V8H26V10ZM26 16V18H28V16H26ZM22.5422 16V14H21.074L20.6341 15.4007L22.5422 16ZM21.8684 17.6253L20.0958 16.6989L19.4155 18.0008L20.4542 19.0395L21.8684 17.6253ZM24.3139 20.0708L25.7282 21.4851L27.1424 20.0708L25.7282 18.6566L24.3139 20.0708ZM20.0713 24.3135L18.6571 25.7277L20.0713 27.1419L21.4855 25.7277L20.0713 24.3135ZM17.6259 21.8681L19.0401 20.4538L18.0013 19.4151L16.6994 20.0956L17.6259 21.8681ZM16 22.5422L15.4007 20.6341L14 21.074V22.5422H16ZM16 26V28H18V26H16ZM10 26H8V28H10V26ZM10 22.5422H12V21.074L10.5993 20.6341L10 22.5422ZM8.37414 21.8681L9.30061 20.0956L7.99869 19.4151L6.95992 20.4538L8.37414 21.8681ZM5.92871 24.3135L4.5145 25.7277L5.92871 27.1419L7.34292 25.7277L5.92871 24.3135ZM1.68607 20.0708L0.271857 18.6566L-1.14236 20.0708L0.271857 21.485L1.68607 20.0708ZM4.13164 17.6253L5.54585 19.0395L6.58455 18.0008L5.90417 16.6989L4.13164 17.6253ZM3.4578 16L5.3659 15.4007L4.92597 14H3.4578V16ZM0 16H-2V18H0V16ZM0 10V8H-2V10H0ZM3.4578 10V12H4.92597L5.3659 10.5993L3.4578 10ZM4.13195 8.37414L5.90442 9.30061L6.58493 7.99869L5.54616 6.95992L4.13195 8.37414ZM1.68652 5.92871L0.27231 4.5145L-1.1419 5.92871L0.27231 7.34292L1.68652 5.92871ZM5.92916 1.68607L7.34338 0.271857L5.92916 -1.14236L4.51495 0.271857L5.92916 1.68607ZM8.37473 4.13164L6.96052 5.54585L7.99921 6.58455L9.30108 5.90417L8.37473 4.13164ZM10 3.4578L10.5993 5.3659L12 4.92597V3.4578H10ZM16 -2H10V2H16V-2ZM18 3.4578V0H14V3.4578H18ZM15.4007 5.3659C15.8517 5.50756 16.2858 5.68825 16.6989 5.90417L18.5516 2.35911C17.9311 2.03479 17.2783 1.76296 16.5993 1.5497L15.4007 5.3659ZM18.6566 0.271846L16.2111 2.71742L19.0395 5.54585L21.4851 3.10027L18.6566 0.271846ZM25.7277 4.51449L21.4851 0.271847L18.6566 3.10027L22.8993 7.34291L25.7277 4.51449ZM23.2823 9.78835L25.7277 7.34291L22.8993 4.51449L20.4538 6.95992L23.2823 9.78835ZM20.0956 9.30061C20.3116 9.71389 20.4924 10.1481 20.6341 10.5993L24.4503 9.4007C24.237 8.72145 23.965 8.06844 23.6405 7.44766L20.0956 9.30061ZM26 8H22.5422V12H26V8ZM28 16V10H24V16H28ZM22.5422 18H26V14H22.5422V18ZM20.6341 15.4007C20.4924 15.8517 20.3117 16.2858 20.0958 16.6989L23.6409 18.5516C23.9652 17.9311 24.237 17.2783 24.4503 16.5993L20.6341 15.4007ZM25.7282 18.6566L23.2826 16.2111L20.4542 19.0395L22.8997 21.4851L25.7282 18.6566ZM21.4855 25.7277L25.7282 21.4851L22.8997 18.6566L18.6571 22.8993L21.4855 25.7277ZM16.2117 23.2823L18.6571 25.7277L21.4855 22.8993L19.0401 20.4538L16.2117 23.2823ZM16.6994 20.0956C16.2861 20.3116 15.8519 20.4924 15.4007 20.6341L16.5993 24.4503C17.2785 24.237 17.9316 23.965 18.5523 23.6405L16.6994 20.0956ZM18 26V22.5422H14V26H18ZM10 28H16V24H10V28ZM8 22.5422V26H12V22.5422H8ZM10.5993 20.6341C10.1481 20.4924 9.71389 20.3116 9.30061 20.0956L7.44766 23.6405C8.06844 23.965 8.72145 24.237 9.4007 24.4503L10.5993 20.6341ZM7.34292 25.7277L9.78835 23.2823L6.95992 20.4538L4.5145 22.8993L7.34292 25.7277ZM0.271857 21.485L4.5145 25.7277L7.34292 22.8993L3.10028 18.6566L0.271857 21.485ZM2.71742 16.2111L0.271857 18.6566L3.10028 21.485L5.54585 19.0395L2.71742 16.2111ZM5.90417 16.6989C5.68825 16.2858 5.50756 15.8517 5.3659 15.4007L1.5497 16.5993C1.76296 17.2783 2.03479 17.9311 2.35911 18.5516L5.90417 16.6989ZM0 18H3.4578V14H0V18ZM-2 10V16H2V10H-2ZM3.4578 8H0V12H3.4578V8ZM5.3659 10.5993C5.50762 10.1481 5.68839 9.71389 5.90442 9.30061L2.35948 7.44766C2.035 8.06844 1.76304 8.72145 1.5497 9.4007L5.3659 10.5993ZM0.27231 7.34292L2.71773 9.78835L5.54616 6.95992L3.10074 4.5145L0.27231 7.34292ZM4.51495 0.271857L0.27231 4.5145L3.10074 7.34292L7.34338 3.10028L4.51495 0.271857ZM9.78894 2.71742L7.34338 0.271857L4.51495 3.10028L6.96052 5.54585L9.78894 2.71742ZM9.30108 5.90417C9.71422 5.68825 10.1483 5.50756 10.5993 5.3659L9.4007 1.5497C8.72172 1.76296 8.06894 2.03479 7.44838 2.35911L9.30108 5.90417ZM8 0V3.4578H12V0H8Z" fill="#25AE6A" mask="url(#path-1-inside-1)"/>
<circle cx="13" cy="13" r="4" fill="white" stroke="#25AE6A" stroke-width="2"/>
<line x1="33" y1="8" x2="33" y2="34" stroke="#25AE6A" stroke-width="2"/>
<rect x="31" y="11" width="4" height="4" fill="white" stroke="#25AE6A" stroke-width="2"/>
<line x1="41" y1="8" x2="41" y2="34" stroke="#25AE6A" stroke-width="2"/>
<rect x="39" y="19" width="4" height="4" fill="white" stroke="#25AE6A" stroke-width="2"/>
<line x1="50" y1="8" x2="50" y2="34" stroke="#25AE6A" stroke-width="2"/>
<rect x="48" y="27" width="4" height="4" fill="white" stroke="#25AE6A" stroke-width="2"/>
<rect x="31" y="1" width="4" height="4" rx="2" fill="white" stroke="#25AE6A" stroke-width="2"/>
<rect x="39" y="1" width="4" height="4" rx="2" fill="white" stroke="#25AE6A" stroke-width="2"/>
<rect x="48" y="1" width="4" height="4" rx="2" fill="white" stroke="#25AE6A" stroke-width="2"/>
<line x1="50" y1="39" x2="50" y2="45" stroke="#25AE6A" stroke-width="2"/>
<line x1="44" y1="41" x2="44" y2="45" stroke="#25AE6A" stroke-width="2"/>
<line x1="38" y1="41" x2="38" y2="45" stroke="#25AE6A" stroke-width="2"/>
<line x1="32" y1="41" x2="32" y2="45" stroke="#25AE6A" stroke-width="2"/>
<line x1="26" y1="39" x2="26" y2="45" stroke="#25AE6A" stroke-width="2"/>
<line x1="2" y1="39" x2="2" y2="45" stroke="#25AE6A" stroke-width="2"/>
<line x1="20" y1="41" x2="20" y2="45" stroke="#25AE6A" stroke-width="2"/>
<line x1="14" y1="41" x2="14" y2="45" stroke="#25AE6A" stroke-width="2"/>
<line x1="8" y1="41" x2="8" y2="45" stroke="#25AE6A" stroke-width="2"/>
<line x1="2" y1="44" x2="51" y2="44" stroke="#25AE6A" stroke-width="2"/>
</svg>
