<svg width="22" height="14" viewBox="0 0 22 14" fill="none" xmlns="http://www.w3.org/2000/svg">
<path d="M20.8351 0.0325125L20.6319 0H1.38911L1.2536 0.0325125L11.0105 8.35571L20.8351 0.0325125Z" fill="white"/>
<path d="M21.9189 0.878296L14.9739 6.76306L21.8173 12.5178C21.9189 12.3227 21.9867 12.1276 21.9867 11.9V1.33347C22.0206 1.17091 21.9867 1.00835 21.9189 0.878296Z" fill="white"/>
<path d="M0.101634 0.8125C0.0338781 0.975062 0 1.13762 0 1.3327V11.8993C0 12.0943 0.0338781 12.2569 0.135512 12.452L7.04664 6.76229L0.101634 0.8125Z" fill="white"/>
<path d="M11.0105 10.144L8.06312 7.60803L1.28751 13.2002H1.38914H20.598L13.9579 7.64054L11.0105 10.144Z" fill="white"/>
</svg>
