<svg width="20" height="20" viewBox="0 0 20 20" fill="none" xmlns="http://www.w3.org/2000/svg">
<path d="M20 14.9918C19.9373 15.4065 19.8078 15.8081 19.6167 16.181C19.3774 16.6916 19.0751 17.1699 18.7169 17.6046C18.3068 18.1116 17.8431 18.5723 17.3339 18.9785C16.7715 19.4194 16.1408 19.7645 15.4671 20C14.3892 19.6961 13.3456 19.2806 12.3531 18.7602C11.3519 18.2462 10.3933 17.6524 9.48659 16.9843C8.59029 16.3205 7.7334 15.6045 6.92031 14.8401C6.14298 14.1024 5.40319 13.3256 4.70377 12.5129C4.02028 11.7257 3.42063 10.9385 2.85372 10.1513C2.30358 9.38089 1.83727 8.62657 1.43724 7.94046C1.08097 7.32085 0.756891 6.68309 0.466305 6.02977C0.25806 5.58024 0.101611 5.10827 0 4.62304C0.219076 3.94019 0.551687 3.29958 0.983711 2.7284C1.3729 2.20483 1.82628 1.73272 2.33312 1.32328C2.77051 0.963493 3.24672 0.654209 3.75279 0.401236C4.12667 0.215344 4.52355 0.080409 4.93293 0C5.14139 0.150408 5.33666 0.31847 5.51661 0.502347C5.73299 0.736669 5.96694 1.00469 6.2001 1.30482C6.43325 1.60494 6.68317 1.94118 6.91872 2.29346C7.15426 2.64575 7.38502 2.99723 7.58544 3.34871C7.78585 3.7002 7.9687 4.03563 8.13558 4.33736C8.26653 4.60787 8.37625 4.88825 8.46375 5.17594C8.30744 5.42525 8.11654 5.65087 7.89684 5.84601C7.68638 6.04421 7.4637 6.22887 7.23012 6.39891C7.00826 6.56213 6.77414 6.70781 6.52986 6.83465C6.29671 6.95181 6.06356 7.05212 5.86314 7.13638C5.95111 7.41129 6.08036 7.67108 6.24641 7.90675C6.47956 8.27509 6.76302 8.67712 7.12951 9.16262C7.49601 9.63126 7.89604 10.1344 8.36314 10.6536C8.82088 11.1751 9.30485 11.6728 9.81316 12.1446C10.2916 12.597 10.8042 13.0115 11.3462 13.3844C11.7998 13.7126 12.3078 13.9571 12.8465 14.1066C12.9264 13.906 13.0302 13.6709 13.1468 13.4366C13.2727 13.185 13.4176 12.9436 13.5803 12.7144C13.75 12.47 13.9397 12.2402 14.1472 12.0274C14.3518 11.8109 14.5812 11.6197 14.8307 11.4577C15.1168 11.5472 15.3956 11.6591 15.6643 11.7923C15.9837 11.9432 16.3143 12.127 16.664 12.3284C17.0251 12.5337 17.3755 12.7573 17.714 12.9984C18.0637 13.2496 18.3975 13.4839 18.6977 13.7207C18.9979 13.9574 19.2646 14.1733 19.4962 14.3907C19.682 14.5752 19.8507 14.7764 20 14.9918Z" fill="white"/>
</svg>
