<svg width="165" height="31" viewBox="0 0 165 31" fill="none" xmlns="http://www.w3.org/2000/svg">
<path d="M11.0956 18.4812H7.60941V30.5781H0.237915V0H7.60941V11.8238H10.4446L16.325 0H25.2506L16.85 14.1129L26.3007 30.5781H17.5851L11.0956 18.4812Z" fill="#404040"/>
<path d="M40.6026 30.5781C40.3506 30.116 40.1266 29.437 39.9306 28.5409C38.6285 30.179 36.8084 30.9981 34.4702 30.9981C32.3281 30.9981 30.5079 30.354 29.0098 29.066C27.5117 27.7639 26.7627 26.1328 26.7627 24.1726C26.7627 21.7085 27.6728 19.8463 29.4929 18.5862C31.313 17.3262 33.9592 16.6961 37.4314 16.6961H39.6156V15.499C39.6156 13.4129 38.7125 12.3698 36.9064 12.3698C35.2263 12.3698 34.3862 13.1959 34.3862 14.848H27.3087C27.3087 12.6498 28.2398 10.8647 30.1019 9.49264C31.978 8.12055 34.3652 7.4345 37.2634 7.4345C40.1616 7.4345 42.4507 8.14155 44.1309 9.55564C45.811 10.9697 46.672 12.9089 46.714 15.373V25.4327C46.742 27.5188 47.0641 29.115 47.6801 30.221V30.5781H40.6026ZM36.1713 25.9577C37.0534 25.9577 37.7814 25.7687 38.3555 25.3907C38.9435 25.0127 39.3635 24.5856 39.6156 24.1096V20.4764H37.5574C35.0933 20.4764 33.8612 21.5824 33.8612 23.7946C33.8612 24.4386 34.0782 24.9637 34.5122 25.3697C34.9462 25.7617 35.4993 25.9577 36.1713 25.9577Z" fill="#404040"/>
<path d="M70.9707 30.5781H63.8512V13.3149H57.5928V30.5781H50.5153V7.85453H70.9707V30.5781Z" fill="#404040"/>
<path d="M87.9818 7.85453H95.0803V30.5781H87.9818V17.3472L81.7444 30.5781H74.6249V7.85453H81.7444V21.0434L87.9818 7.85453Z" fill="#404040"/>
<path d="M118.77 13.2729H111.608V30.5781H104.489V13.2729H97.4324V7.85453H118.77V13.2729Z" fill="#404040"/>
<path d="M133.891 30.5781C133.639 30.116 133.415 29.437 133.219 28.5409C131.917 30.179 130.097 30.9981 127.758 30.9981C125.616 30.9981 123.796 30.354 122.298 29.066C120.8 27.7639 120.051 26.1328 120.051 24.1726C120.051 21.7085 120.961 19.8463 122.781 18.5862C124.601 17.3262 127.247 16.6961 130.72 16.6961H132.904V15.499C132.904 13.4129 132.001 12.3698 130.195 12.3698C128.515 12.3698 127.674 13.1959 127.674 14.848H120.597C120.597 12.6498 121.528 10.8647 123.39 9.49264C125.266 8.12055 127.653 7.4345 130.552 7.4345C133.45 7.4345 135.739 8.14155 137.419 9.55564C139.099 10.9697 139.96 12.9089 140.002 15.373V25.4327C140.03 27.5188 140.352 29.115 140.968 30.221V30.5781H133.891ZM129.46 25.9577C130.342 25.9577 131.07 25.7687 131.644 25.3907C132.232 25.0127 132.652 24.5856 132.904 24.1096V20.4764H130.846C128.382 20.4764 127.149 21.5824 127.149 23.7946C127.149 24.4386 127.366 24.9637 127.8 25.3697C128.235 25.7617 128.788 25.9577 129.46 25.9577Z" fill="#404040"/>
<path d="M164.238 7.85453V30.5781H157.16V13.3149H152.918L152.54 20.2664C152.274 23.7106 151.497 26.2868 150.209 27.9949C148.921 29.703 147.01 30.5641 144.476 30.5781H142.249L142.165 25.1597L142.9 25.0757C143.839 24.9637 144.532 24.3406 144.98 23.2066C145.442 22.0585 145.736 20.3294 145.862 18.0192L146.303 7.85453H164.238Z" fill="#404040"/>
</svg>
