<svg width="46" height="46" viewBox="0 0 46 46" fill="none" xmlns="http://www.w3.org/2000/svg">
<rect x="15.0001" y="15" width="16" height="16" rx="2" fill="white" stroke="#25AE6A" stroke-width="2" stroke-linecap="round"/>
<rect x="19.0001" y="37" width="8" height="8" rx="2" fill="white" stroke="#25AE6A" stroke-width="2" stroke-linecap="round"/>
<rect x="19.0001" y="1" width="8" height="8" rx="2" fill="white" stroke="#25AE6A" stroke-width="2" stroke-linecap="round"/>
<rect x="1.00006" y="19" width="8" height="8" rx="2" fill="white" stroke="#25AE6A" stroke-width="2" stroke-linecap="round"/>
<rect x="37.0001" y="19" width="8" height="8" rx="2" fill="white" stroke="#25AE6A" stroke-width="2" stroke-linecap="round"/>
<rect x="37.0001" y="1" width="8" height="8" rx="2" fill="white" stroke="#25AE6A" stroke-width="2" stroke-linecap="round"/>
<rect x="1.00006" y="1" width="8" height="8" rx="2" fill="white" stroke="#25AE6A" stroke-width="2" stroke-linecap="round"/>
<rect x="1.00006" y="37" width="8" height="8" rx="2" fill="white" stroke="#25AE6A" stroke-width="2" stroke-linecap="round"/>
<rect x="37.0001" y="37" width="8" height="8" rx="2" fill="white" stroke="#25AE6A" stroke-width="2" stroke-linecap="round"/>
<line x1="31.0001" y1="23" x2="37.0001" y2="23" stroke="#25AE6A" stroke-width="2"/>
<line x1="9.00006" y1="23" x2="15.0001" y2="23" stroke="#25AE6A" stroke-width="2"/>
<path d="M9.00006 37L15.0001 31" stroke="#25AE6A" stroke-width="2"/>
<path d="M31.0001 31L37.0001 37" stroke="#25AE6A" stroke-width="2"/>
<path d="M31.0001 15L37.0001 9" stroke="#25AE6A" stroke-width="2"/>
<path d="M15.0001 15L9.00006 9" stroke="#25AE6A" stroke-width="2"/>
<line x1="23.0001" y1="9" x2="23.0001" y2="15" stroke="#25AE6A" stroke-width="2"/>
<line x1="23.0001" y1="31" x2="23.0001" y2="37" stroke="#25AE6A" stroke-width="2"/>
</svg>
